<?xml version="1.0" encoding="iso-8859-1"?>
<!-- Generator: Adobe Illustrator 19.0.0, SVG Export Plug-In . SVG Version: 6.00 Build 0)  -->
<svg version="1.1" id="Layer_1" xmlns="http://www.w3.org/2000/svg" xmlns:xlink="http://www.w3.org/1999/xlink" x="0px" y="0px"
	 viewBox="0 0 290 290" style="enable-background:new 0 0 290 290;" xml:space="preserve">
<g>
	<circle style="fill:#FFEDBE;" cx="145" cy="145" r="140"/>
	<circle style="fill:#E8F2FB;" cx="145" cy="145" r="98.995"/>
	<g>
		<path style="fill:#80D0E1;" d="M145,0C65.047,0,0,65.047,0,145s65.047,145,145,145s145-65.047,145-145S224.953,0,145,0z M145,280
			c-74.44,0-135-60.561-135-135S70.56,10,145,10s135,60.561,135,135S219.439,280,145,280z"/>
		<path style="fill:#80D0E1;" d="M145,20.861c-2.761,0-5,2.239-5,5s2.239,5,5,5c62.936,0,114.14,51.203,114.14,114.139
			c0,2.761,2.238,5,5,5s5-2.239,5-5C269.14,76.549,213.451,20.861,145,20.861z"/>
		<path style="fill:#80D0E1;" d="M145,41.005C87.657,41.005,41.005,87.657,41.005,145S87.657,248.995,145,248.995
			S248.995,202.343,248.995,145S202.343,41.005,145,41.005z M145,238.995c-51.829,0-93.995-42.166-93.995-93.995
			S93.171,51.005,145,51.005S238.995,93.171,238.995,145S196.829,238.995,145,238.995z"/>
		<path style="fill:#80D0E1;" d="M193.434,140H164.91c-1.839-7.315-7.595-13.072-14.91-14.91V80.222c0-2.761-2.238-5-5-5
			c-2.761,0-5,2.239-5,5v44.867c-8.919,2.242-15.551,10.306-15.551,19.91c0,11.332,9.219,20.551,20.551,20.551
			c9.605,0,17.668-6.632,19.91-15.551h28.524c2.762,0,5-2.239,5-5S196.195,140,193.434,140z M145,155.551
			c-5.818,0-10.551-4.733-10.551-10.551s4.733-10.551,10.551-10.551c5.817,0,10.551,4.733,10.551,10.551
			S150.817,155.551,145,155.551z"/>
	</g>
</g>
<g>
</g>
<g>
</g>
<g>
</g>
<g>
</g>
<g>
</g>
<g>
</g>
<g>
</g>
<g>
</g>
<g>
</g>
<g>
</g>
<g>
</g>
<g>
</g>
<g>
</g>
<g>
</g>
<g>
</g>
</svg>
